<?xml version="1.0" encoding="UTF-8"?>
<svg width="53px" height="53px" viewBox="0 0 53 53" version="1.1" xmlns="http://www.w3.org/2000/svg" xmlns:xlink="http://www.w3.org/1999/xlink">
    <!-- Generator: Sketch 51.2 (57519) - http://www.bohemiancoding.com/sketch -->
    <title>Group 3</title>
    <desc>Created with Sketch.</desc>
    <defs>
        <polygon id="path-1" points="0 0 53 0 53 53 0 53"></polygon>
    </defs>
    <g id="Page-1" stroke="none" stroke-width="1" fill="none" fill-rule="evenodd">
        <g id="Microklima" transform="translate(-152.000000, -3331.000000)">
            <g id="Group-3" transform="translate(152.000000, 3331.000000)">
                <mask id="mask-2" fill="white">
                    <use xlink:href="#path-1"></use>
                </mask>
                <g id="Clip-2"></g>
                <path d="M47.0213457,33.3973357 C45.6299047,34.4887429 43.8365837,34.9030097 42.2084188,34.5093874 C41.1252694,34.2451375 40.2898543,33.7923343 39.5824353,33.0835389 C39.0209042,32.5220078 38.60939,31.8778987 38.1703498,31.1925005 C37.4161365,30.0130099 36.483004,28.6931367 34.9566855,27.9595679 L34.9539328,27.9595679 C34.2616531,27.6278792 33.5143213,27.462723 32.6899166,27.462723 C32.5096211,27.462723 32.3251967,27.4709808 32.1380197,27.4861201 C32.1930717,27.1668181 32.2219741,26.8392584 32.2219741,26.5048171 C32.2219741,24.9757459 31.6260355,23.5375107 30.5442624,22.4543613 C30.5181126,22.4268353 30.4892103,22.4006856 30.4630606,22.3745358 C32.951414,19.9247189 36.7224805,18.341972 40.0668935,18.341972 C42.6323197,18.341972 45.0353424,19.3329092 46.8341686,21.1317354 C48.5917058,22.8878963 49.5592459,25.2110935 49.5592459,27.6746735 C49.5592459,30.0790724 48.6577683,32.11187 47.0213457,33.3973357 M25.3239502,49.5592459 C23.2305954,49.5578696 21.3698356,48.8518268 20.0884988,47.5691137 C18.647511,46.1281259 18.0350567,44.0733075 18.4906126,42.2084188 C19.0438858,39.9333922 20.3844036,39.0787089 21.8088758,38.1703498 C23.0062583,37.4037498 24.2449298,36.6123763 25.0404321,34.9539328 C25.4423122,34.1130125 25.5992106,33.1895141 25.5125036,32.1435249 C25.8318056,32.2013296 26.1621179,32.2316082 26.4951829,32.2316082 L26.4965592,32.2316082 C28.1233478,32.2316082 29.5946142,31.5475863 30.6378509,30.4520502 L30.6392272,30.4534265 C33.0436262,32.9115012 34.658028,36.7747799 34.6566517,40.0655172 C34.6566517,45.298216 30.4699421,49.5578696 25.3239502,49.5592459 M12.9317302,34.6566517 C10.366304,34.6566517 7.96328131,33.6657145 6.16445506,31.865512 C4.40829417,30.1107274 3.44075411,27.7875302 3.44075411,25.3239502 C3.44075411,22.918175 4.34085538,20.8867537 5.97865434,19.601288 C7.02326729,18.7810122 8.29772261,18.341972 9.55428601,18.341972 C9.97268171,18.341972 10.3869485,18.3901426 10.7915812,18.48786 C11.8747306,18.7521099 12.7087694,19.2062894 13.4175647,19.9150848 C13.9735906,20.4697343 14.3809759,21.1083383 14.8255213,21.8019943 C15.5783583,22.9842375 16.5114908,24.3068633 18.0446909,25.0390558 C18.8869875,25.4423122 19.8091096,25.6019632 20.8523462,25.5125036 C20.7959178,25.8359345 20.7670155,26.1662469 20.7670155,26.5048171 C20.7670155,28.0971981 21.4579189,29.5629593 22.5493261,30.6130775 L22.5383157,30.6227116 C20.048586,33.0739048 16.2788958,34.6566517 12.9317302,34.6566517 M28.78122,26.5034408 C28.7798437,27.7641331 27.7544989,28.7894778 26.4951829,28.7908541 C25.2978005,28.7908541 24.2077696,27.7008232 24.2077696,26.5061934 C24.2091459,25.2441248 25.2344906,24.21878 26.4951829,24.2174037 C27.1048846,24.2174037 27.6788024,24.4555039 28.1123374,24.8862863 C28.5431198,25.3198213 28.78122,25.8937391 28.78122,26.5034408 M21.0876938,6.21675452 C22.8521125,4.42618609 25.1918253,3.44075411 27.6746735,3.44075411 C29.7694046,3.44075411 31.6274118,4.14679685 32.9115012,5.42950998 C34.352489,6.87049781 34.963567,8.92393986 34.5093874,10.7902049 C33.9561142,13.0638552 32.6142201,13.9199148 31.1952531,14.8255213 C29.9964943,15.5921213 28.7564465,16.3834948 27.9581916,18.0446909 C27.5549352,18.8883638 27.3994131,19.8132385 27.4874964,20.8619803 C27.1626892,20.8055519 26.8310005,20.7766496 26.4951829,20.7766496 C24.871147,20.7780259 23.4040095,21.4565426 22.3607728,22.5451972 C19.9563738,20.0884988 18.341972,16.2252201 18.3433483,12.9317302 C18.3433483,10.3979589 19.3177699,8.01282817 21.0876938,6.21675452 M49.2674699,18.6984341 C45.8459841,15.2797008 40.8238594,14.1181023 35.8333896,15.5081669 C36.6770625,14.5695292 37.4326521,13.3267288 37.8538004,11.6049755 C38.5901218,8.57986445 37.6280869,5.28086941 35.3448025,2.99620868 C33.4110987,1.06388117 30.6873978,0 27.6746735,0 C24.2628217,0 21.0532862,1.35015191 18.6378769,3.80134514 C16.2279727,6.24565686 14.9012179,9.48822353 14.9025942,12.9317302 C14.9025942,14.3080319 15.111792,15.7393856 15.504038,17.1528474 C14.418136,16.1770495 13.1381755,15.5191773 11.6063518,15.1461996 C8.9624763,14.5007141 6.06673765,15.1558337 3.8536446,16.895479 C1.36804383,18.8456984 0,21.8391545 0,25.3239502 C0,28.7068997 1.32537848,31.8944143 3.73253006,34.2988133 C7.14851074,37.7189228 12.1747643,38.8791451 17.1652341,37.4904568 C16.3201849,38.4290945 15.5673479,39.6718949 15.1461996,41.3936482 C14.4098782,44.4187593 15.3719131,47.7177543 17.6551975,50.002415 C19.5861487,51.9347425 22.3112259,52.9986237 25.3239502,53 C32.3678621,52.9986237 38.0974058,47.196136 38.0974058,40.0668935 C38.0974058,38.6905918 37.8868316,37.2592381 37.495962,35.8471526 C38.581864,36.8215742 39.8618245,37.4794464 41.3936482,37.8524241 C44.0292659,38.4965333 46.9318861,37.84279 49.1477317,36.1031447 C51.6319562,34.1501727 53,31.1580929 53,27.6746735 C53,24.291724 51.6746215,21.1042094 49.2674699,18.6984341" id="Fill-1" fill="#FFFFFF" mask="url(#mask-2)"></path>
            </g>
        </g>
    </g>
</svg>